<svg xmlns="http://www.w3.org/2000/svg" width="35" height="35" viewBox="0 0 35 35">
  <g id="Groupe_647" data-name="Groupe 647" transform="translate(7646 -6154)">
    <rect id="Rectangle_1072" data-name="Rectangle 1072" width="35" height="35" transform="translate(-7646 6154)" fill="#f5c800"/>
    <path id="Tracé_368" data-name="Tracé 368" d="M372.713,226.639a2.251,2.251,0,0,0-2.067-1.994l-4.6-.778-.926.378a6.477,6.477,0,0,1-1.825.424v6.391h9.9Zm-13.386-2.772-4.571.775a2.26,2.26,0,0,0-2.091,2l-.49,4.42h9.9v-6.391a6.448,6.448,0,0,1-1.824-.425Zm3.362-5.94a3.036,3.036,0,0,1-1.94-.649l-.422.467a3.584,3.584,0,0,0,4.723,0l-.422-.468A3.035,3.035,0,0,1,362.69,217.927Zm3.107,3.8.035-.015.892-.383a3.445,3.445,0,0,0,2.084-2.918l.145-1.938a3.531,3.531,0,0,0,2.695-3.271,2.449,2.449,0,0,0-1.783-2.549l.413-1.8a2.453,2.453,0,0,0-2.391-3H366.38a.97.97,0,0,0-.9.6h-.1a3.917,3.917,0,0,0-3.9-3.667H361.3a3.816,3.816,0,0,0-1.853.481l-4.015,2.236a3.587,3.587,0,0,0-1.841,3.134l.417,3.266a2.93,2.93,0,0,0-.28,1.3,3.531,3.531,0,0,0,2.695,3.271l.145,1.937a3.445,3.445,0,0,0,2.084,2.918l.893.383.034.015,1.223.3a8.972,8.972,0,0,0,3.767,0ZM362.689,221a8.8,8.8,0,0,1-2.655-.41l-.452-.2v0l-.445-.191a2.233,2.233,0,0,1-1.347-1.885l-.209-2.784-.193-.053c-1.092-.258-2.435-.932-2.435-2.28a1.645,1.645,0,0,1,.192-.8,3.715,3.715,0,0,0,3.224-2.472,3.321,3.321,0,0,0,.85,3.546,9.9,9.9,0,0,0,6.035-5.977,5.226,5.226,0,0,0,.516,2.762,3.849,3.849,0,0,0,.327.52h0a2.726,2.726,0,0,0,1.969,1.147l-.008.108.183-.068.018-.005a2.835,2.835,0,0,1,.627-.15c.047-.006.094-.012.14-.015a1.658,1.658,0,0,1,.419.034,1.212,1.212,0,0,1,.98,1.367c0,1.348-1.343,2.022-2.435,2.28l-.193.045-.209,2.793a2.233,2.233,0,0,1-1.346,1.885l-.445.191v0l-.452.2A8.8,8.8,0,0,1,362.689,221Z" transform="translate(-7991.175 5954.217)" fill="#af6a0b"/>
  </g>
</svg>
