<svg xmlns="http://www.w3.org/2000/svg" width="100.001" height="17.009" viewBox="0 0 100.001 17.009">
  <g id="Groupe_338" data-name="Groupe 338" transform="translate(-187.24 -257.89)">
    <path id="Tracé_356" data-name="Tracé 356" d="M203.869,267.69H187.846a.606.606,0,0,0-.606.606v3.1a.606.606,0,0,0,.606.606h16.022a.606.606,0,0,0,.607-.606v-3.1A.606.606,0,0,0,203.869,267.69Zm0,8.618H187.846a.606.606,0,0,0-.606.607v3.1a.606.606,0,0,0,.606.607h16.022a.606.606,0,0,0,.607-.607v-3.1A.606.606,0,0,0,203.869,276.308Z" transform="translate(0 -7.704)" fill="#f5c800"/>
    <path id="Union_103" data-name="Union 103" d="M67.336,16.635A5.5,5.5,0,0,1,65.585,15.6a4.559,4.559,0,0,1-1.157-1.582,4.882,4.882,0,0,1-.408-2.007,4.473,4.473,0,0,1,1.633-3.674,6.585,6.585,0,0,1,4.286-1.327h4.184V6.259a2.809,2.809,0,0,0-.731-2.024,2.712,2.712,0,0,0-2.058-.766,2.744,2.744,0,0,0-1.956.578,2.3,2.3,0,0,0-.615.982.518.518,0,0,1-.49.378H65.2a.5.5,0,0,1-.507-.55,4.6,4.6,0,0,1,.447-1.542A5.505,5.505,0,0,1,66.469,1.6,6.134,6.134,0,0,1,68.561.425,8.525,8.525,0,0,1,71.333,0,6.8,6.8,0,0,1,76.3,1.735,6.647,6.647,0,0,1,78.069,6.7v5a19.868,19.868,0,0,0,.17,2.806q.119.82.271,1.549a.507.507,0,0,1-.5.611H75.088a.512.512,0,0,1-.493-.38q-.072-.269-.132-.522l-.212-.887A6.777,6.777,0,0,1,72.3,16.43a5.86,5.86,0,0,1-2.738.578A6.337,6.337,0,0,1,67.336,16.635Zm1.326-6.259A1.631,1.631,0,0,0,68,11.736a1.738,1.738,0,0,0,.68,1.429,2.915,2.915,0,0,0,1.871.544,3.381,3.381,0,0,0,2.551-.986,4.187,4.187,0,0,0,1.021-2.857H70.517A2.979,2.979,0,0,0,68.663,10.375Zm-17.5,5.987a7.748,7.748,0,0,1-2.568-1.769,7.9,7.9,0,0,1-1.667-2.687,9.477,9.477,0,0,1-.6-3.4,9.026,9.026,0,0,1,.629-3.4,8.207,8.207,0,0,1,1.718-2.688A8.036,8.036,0,0,1,54.461,0a8.909,8.909,0,0,1,3.078.494,6.869,6.869,0,0,1,2.279,1.343A6.6,6.6,0,0,1,61.3,3.776a7.474,7.474,0,0,1,.6,1.663.508.508,0,0,1-.5.616H57.918a.509.509,0,0,1-.472-.323,3.206,3.206,0,0,0-.927-1.275,3.088,3.088,0,0,0-2.058-.646A3.678,3.678,0,0,0,53,4.116a3.632,3.632,0,0,0-1.259.9,4.4,4.4,0,0,0-.867,1.48A5.813,5.813,0,0,0,50.549,8.5a4.987,4.987,0,0,0,1.106,3.487A3.638,3.638,0,0,0,54.461,13.2a3.2,3.2,0,0,0,2.092-.629,4.031,4.031,0,0,0,1.012-1.217.5.5,0,0,1,.444-.263h3.509a.507.507,0,0,1,.489.652,8.592,8.592,0,0,1-.691,1.61,6.877,6.877,0,0,1-1.548,1.888,7.232,7.232,0,0,1-2.262,1.293,8.893,8.893,0,0,1-3.044.476A8.243,8.243,0,0,1,51.161,16.363Zm-18.046.069A7.248,7.248,0,0,1,28.744,12.1a9.848,9.848,0,0,1-.612-3.582A8.471,8.471,0,0,1,28.8,5.144a8.623,8.623,0,0,1,1.786-2.682A8.205,8.205,0,0,1,36.466.034a8,8,0,0,1,3.215.628,7.373,7.373,0,0,1,2.466,1.714A7.718,7.718,0,0,1,43.729,4.92a8.527,8.527,0,0,1,.561,3.088v.8q0,.254-.021.535a.506.506,0,0,1-.505.466H32.146a3.962,3.962,0,0,0,1.31,2.647,4.3,4.3,0,0,0,2.976,1.018,3.86,3.86,0,0,0,1.973-.425,2.957,2.957,0,0,0,.954-.886.5.5,0,0,1,.417-.22H43.2a.511.511,0,0,1,.47.709,6.726,6.726,0,0,1-.7,1.264,7.115,7.115,0,0,1-1.582,1.616A7.256,7.256,0,0,1,39.2,16.618a8.976,8.976,0,0,1-2.7.391A9.611,9.611,0,0,1,33.116,16.432Zm.476-11.856a3.959,3.959,0,0,0-1.378,2.3h7.994A3.606,3.606,0,0,0,36.4,3.64,4.194,4.194,0,0,0,33.592,4.576ZM22.105,16.669a.606.606,0,0,1-.607-.606V7.484a3.906,3.906,0,0,0-.782-2.653,2.841,2.841,0,0,0-2.245-.884,3.123,3.123,0,0,0-2.7,1.191A4.953,4.953,0,0,0,14.9,8.13v7.932a.607.607,0,0,1-.607.606H11.356a.606.606,0,0,1-.607-.606V7.484q0-3.538-2.891-3.538A3.312,3.312,0,0,0,5.085,5.137,4.7,4.7,0,0,0,4.15,8.13v7.932a.606.606,0,0,1-.606.606H.607A.606.606,0,0,1,0,16.062V.947A.606.606,0,0,1,.607.34H3.34a.606.606,0,0,1,.606.606V2.518A7.725,7.725,0,0,1,6.072.7,5.722,5.722,0,0,1,8.981,0a5.813,5.813,0,0,1,2.942.732,5.294,5.294,0,0,1,2.024,2.092A10.267,10.267,0,0,1,16.362.816,6.165,6.165,0,0,1,19.594,0a6.5,6.5,0,0,1,2.432.442,5.329,5.329,0,0,1,1.922,1.31A5.9,5.9,0,0,1,25.207,3.9a8.984,8.984,0,0,1,.442,2.942v9.225a.606.606,0,0,1-.607.606Z" transform="translate(208.72 257.89)" fill="#cde5f5"/>
  </g>
</svg>
