<svg xmlns="http://www.w3.org/2000/svg" width="42" height="42.043" viewBox="0 0 42 42.043">
  <path id="Tracé_420" data-name="Tracé 420" d="M320.277,423.673l-2.173,0a18.834,18.834,0,0,1-.525,3.428c-.011.046-.024.09-.036.136-.086.335-.179.668-.283,1l-.033.1c-.108.334-.225.666-.35.992-.013.037-.028.072-.042.107-.125.319-.258.636-.4.947-.024.052-.049.1-.073.155-.136.29-.277.576-.426.859-.042.079-.088.158-.131.238q-.2.373-.423.738c-.069.113-.142.225-.215.337-.128.2-.258.4-.394.6-.1.148-.21.292-.317.437s-.228.311-.347.463c-.138.176-.281.347-.424.517-.1.116-.194.232-.294.346-.171.193-.348.381-.526.567-.084.087-.165.173-.249.258-.2.2-.4.389-.605.578-.076.071-.151.141-.229.21-.211.189-.431.371-.652.55-.08.066-.159.132-.241.2-.217.169-.438.332-.663.492-.1.069-.194.14-.293.208-.207.142-.42.279-.633.413-.127.079-.253.159-.382.236s-.285.162-.428.243q-.631.353-1.279.657c-.075.035-.148.075-.223.108-.432.2-.873.361-1.317.522-.381.138-.765.256-1.151.368-.205.061-.41.125-.617.177-.375.1-.753.171-1.13.243-.238.046-.474.094-.713.13-.33.05-.661.08-.991.113-.3.028-.6.059-.895.073-.268.013-.536.011-.8.012-.362,0-.725,0-1.087-.018-.216-.012-.431-.036-.645-.055-.406-.036-.812-.077-1.217-.14-.2-.03-.392-.072-.588-.108-.4-.076-.808-.159-1.209-.262-.238-.061-.474-.133-.709-.205-.337-.1-.671-.2-1-.32s-.635-.245-.95-.379c-.235-.1-.473-.2-.7-.3-.366-.171-.719-.359-1.071-.552-.184-.1-.372-.2-.553-.307-.343-.2-.671-.423-1-.646-.189-.128-.38-.253-.562-.388-.283-.208-.553-.432-.822-.655-.216-.179-.434-.355-.641-.543s-.417-.4-.622-.6c-.241-.241-.483-.481-.712-.735-.158-.176-.307-.361-.458-.543-.247-.3-.492-.6-.722-.911-.129-.176-.249-.36-.372-.541-.221-.324-.438-.652-.64-.992-.135-.227-.257-.46-.382-.692-.158-.293-.315-.588-.457-.887-.153-.324-.292-.657-.427-.991-.089-.219-.179-.436-.259-.657-.144-.4-.269-.8-.385-1.206-.053-.183-.111-.365-.158-.55-.1-.4-.184-.81-.26-1.217-.039-.207-.081-.412-.113-.619-.055-.363-.09-.728-.124-1.092-.025-.264-.052-.527-.065-.792-.015-.3-.013-.6-.013-.9,0-.33,0-.659.016-.989.013-.245.04-.489.062-.733.036-.379.074-.757.131-1.135.034-.219.079-.437.121-.655.073-.385.152-.769.249-1.151.064-.252.141-.5.216-.751.1-.324.2-.645.308-.961.12-.333.255-.661.394-.988.094-.223.187-.448.289-.666.176-.375.369-.74.567-1.1.1-.177.19-.356.293-.528.206-.348.431-.683.657-1.016.125-.182.246-.368.378-.547.211-.287.438-.561.665-.834.176-.211.348-.425.534-.628.2-.219.407-.425.614-.633.238-.238.475-.475.726-.7.179-.162.368-.312.553-.467.294-.244.591-.487.9-.714.179-.132.367-.254.551-.38.321-.218.646-.433.984-.633.229-.136.464-.26.7-.386.292-.157.584-.312.881-.453.321-.151.651-.288.982-.422.226-.092.45-.187.679-.269.374-.136.753-.251,1.132-.362.215-.062.43-.129.646-.184.358-.091.718-.162,1.079-.231.257-.049.513-.1.771-.141.306-.046.613-.073.92-.1.322-.031.645-.065.97-.079.241-.012.482-.009.722-.011.389,0,.779,0,1.169.021.188.011.376.031.564.048.432.038.863.082,1.3.151.174.027.345.064.518.1.425.079.85.167,1.273.277.246.063.489.138.733.212.3.089.6.179.891.282.388.139.772.3,1.154.46.149.063.3.12.448.188.426.2.841.413,1.248.638.086.048.176.09.26.139.41.235.8.49,1.193.754.088.059.179.113.266.174.337.236.657.492.976.748.134.108.274.21.406.322.243.207.471.431.7.65.193.183.391.36.576.551.157.162.3.334.452.5.24.267.483.531.707.812.1.12.184.248.279.372.256.336.51.676.744,1.03a19.543,19.543,0,0,1,1.1,1.918h-9.9v1.627h13.534V401.826H318.1v11.441a22.145,22.145,0,0,0-1.2-2.11l.016-.01c-.052-.081-.114-.154-.168-.235-.178-.266-.366-.521-.554-.777-.213-.289-.425-.575-.65-.85-.167-.2-.34-.4-.512-.593-.278-.315-.56-.624-.854-.92-.14-.14-.283-.276-.426-.411-.345-.328-.7-.644-1.063-.947-.118-.1-.239-.193-.36-.289q-.589-.467-1.209-.891c-.124-.083-.247-.164-.372-.245-.408-.265-.822-.515-1.248-.752-.165-.091-.331-.179-.5-.266-.38-.2-.766-.385-1.159-.56-.24-.107-.482-.207-.725-.3-.325-.13-.652-.254-.986-.369s-.646-.213-.975-.309c-.149-.043-.291-.1-.44-.14-.177-.047-.356-.081-.534-.125-.2-.049-.409-.1-.616-.143-.538-.113-1.076-.21-1.616-.281-.127-.016-.256-.024-.383-.038q-.706-.078-1.41-.11-.249-.011-.5-.016c-.144,0-.289-.014-.433-.014a20.727,20.727,0,0,0-3.2.257l-.266.044a20.74,20.74,0,0,0-3.711.987c-.046.017-.09.027-.136.043s-.1.043-.145.063c-.577.221-1.149.461-1.709.735l-.15.076c-.385.192-.767.394-1.143.611-.074.043-.141.094-.215.139-.387.229-.76.475-1.13.728-.2.133-.4.264-.587.4-.351.257-.688.531-1.021.809-.2.169-.409.335-.605.511-.28.253-.547.518-.812.785-.232.232-.465.464-.685.706-.2.225-.394.459-.587.691-.258.31-.513.621-.753.946-.14.191-.271.389-.4.586-.261.38-.516.764-.752,1.162-.106.18-.2.366-.3.549-.23.417-.453.837-.655,1.271-.033.069-.073.133-.105.2-.073.161-.125.325-.193.487-.162.381-.32.761-.46,1.153-.121.34-.225.681-.329,1.025-.062.205-.14.4-.2.61-.025.09-.036.181-.06.272-.106.415-.19.833-.27,1.253-.049.252-.1.5-.14.755-.064.417-.106.833-.144,1.252-.026.275-.055.551-.07.827-.018.368-.018.735-.018,1.1,0,.335,0,.669.015,1,.014.3.044.6.073.894.037.4.076.8.137,1.2.036.239.085.474.129.71.084.448.174.894.286,1.336.054.214.121.424.182.637.129.444.264.885.422,1.321.028.077.046.157.075.234.067.178.153.345.223.52.15.366.3.73.469,1.088.16.342.338.672.516,1,.1.178.175.362.276.538.044.077.1.145.143.221.226.382.47.749.718,1.115.137.2.269.4.412.6.256.35.529.686.807,1.017.168.2.334.409.51.605.255.282.523.551.792.819.23.229.458.459.7.677s.469.4.707.6c.3.253.608.5.926.738.2.146.407.283.612.423.371.254.744.5,1.131.732.193.114.393.218.59.326.4.222.807.437,1.225.632.075.035.144.078.219.113.394.18.792.344,1.193.5l.153.06c.592.222,1.2.41,1.8.578.042.012.082.029.125.04s.075.014.112.024c.627.166,1.258.313,1.9.42a20.749,20.749,0,0,0,6.164.089l.021,0a21.143,21.143,0,0,0,3.841-.885q.145-.047.29-.1c.159-.055.322-.1.48-.162.438-.164.868-.344,1.29-.535l.044-.022c.542-.247,1.068-.522,1.585-.811.075-.042.153-.075.228-.117s.157-.1.238-.148c.153-.092.3-.188.454-.283.23-.144.459-.292.682-.445.121-.085.242-.171.362-.258.24-.172.477-.348.709-.529.1-.08.2-.164.3-.246.238-.193.473-.389.7-.593.1-.086.19-.175.284-.261.221-.205.439-.411.651-.624.1-.1.2-.209.3-.313.193-.2.384-.407.568-.617.116-.132.228-.268.342-.4.156-.188.312-.375.463-.568.133-.171.261-.347.391-.523s.239-.325.352-.492c.149-.216.29-.436.431-.657.083-.132.169-.264.251-.4.158-.263.308-.529.454-.8.054-.1.112-.2.164-.3.158-.3.307-.607.451-.917.036-.076.072-.151.106-.227q.223-.495.419-1c.024-.061.05-.123.073-.183.131-.346.252-.7.364-1.051.02-.06.04-.12.059-.18.108-.348.205-.7.3-1.054.018-.074.038-.146.055-.219.03-.125.068-.247.1-.373l-.015,0A20.982,20.982,0,0,0,320.277,423.673Z" transform="translate(-278.277 -401.564)" fill="#f5c800"/>
</svg>
